<svg width="13" height="14" viewBox="0 0 13 14" fill="none" xmlns="http://www.w3.org/2000/svg">
<path d="M3.43056 5.94915C3.92915 5.94915 4.33333 6.34091 4.33333 6.82425C4.33333 7.30759 3.92915 7.69935 3.43056 7.69935C2.93196 7.69935 2.52778 7.30759 2.52778 6.82425C2.52778 6.34091 2.93196 5.94915 3.43056 5.94915ZM6.5 5.94915C6.99862 5.94915 7.40278 6.34091 7.40278 6.82425C7.40278 7.30759 6.99862 7.69935 6.5 7.69935C6.00138 7.69935 5.59722 7.30759 5.59722 6.82425C5.59722 6.34091 6.00138 5.94915 6.5 5.94915ZM10.4722 6.82425C10.4722 6.34091 10.0681 5.94915 9.56944 5.94915C9.07082 5.94915 8.66667 6.34091 8.66667 6.82425C8.66667 7.30759 9.07082 7.69935 9.56944 7.69935C10.0681 7.69935 10.4722 7.30759 10.4722 6.82425ZM4.33333 9.62457C4.33333 9.14124 3.92915 8.74947 3.43056 8.74947C2.93196 8.74947 2.52778 9.14124 2.52778 9.62457C2.52778 10.1079 2.93196 10.4997 3.43056 10.4997C3.92915 10.4997 4.33333 10.1079 4.33333 9.62457ZM7.40278 9.62457C7.40278 9.14124 6.99862 8.74947 6.5 8.74947C6.00138 8.74947 5.59722 9.14124 5.59722 9.62457C5.59722 10.1079 6.00138 10.4997 6.5 10.4997C6.99862 10.4997 7.40278 10.1079 7.40278 9.62457ZM9.56944 8.74947C10.0681 8.74947 10.4722 9.14124 10.4722 9.62457C10.4722 10.1079 10.0681 10.4997 9.56944 10.4997C9.07082 10.4997 8.66667 10.1079 8.66667 9.62457C8.66667 9.14124 9.07082 8.74947 9.56944 8.74947ZM5.44339 0.372283C6.04839 -0.123556 6.9342 -0.124158 7.53993 0.370862L12.4224 4.3608C12.7886 4.6601 13 5.10078 13 5.56512V12.0749C13 12.7515 12.4341 13.3 11.7361 13.3H1.26389C0.565861 13.3 0 12.7515 0 12.0749V5.56422C0 5.10066 0.210658 4.66062 0.575857 4.36133L5.44339 0.372283ZM6.84168 1.17374C6.63975 1.00873 6.34451 1.00894 6.14279 1.17422L1.27529 5.16326C1.15356 5.26303 1.08333 5.4097 1.08333 5.56422V12.0749C1.08333 12.1715 1.16417 12.2499 1.26389 12.2499H11.7361C11.8358 12.2499 11.9167 12.1715 11.9167 12.0749V5.56512C11.9167 5.41034 11.8462 5.26345 11.7241 5.16368L6.84168 1.17374Z" fill="white"/>
</svg>
