<svg width="8" height="14" viewBox="0 0 8 14" fill="none" xmlns="http://www.w3.org/2000/svg">
<path d="M6.5 0.599976C7.3284 0.599976 8 1.26987 8 2.09623V12.4037C8 13.2301 7.3284 13.9 6.5 13.9H1.5C0.671573 13.9 0 13.2301 0 12.4037V2.09623C0 1.26987 0.671573 0.599976 1.5 0.599976H6.5ZM6.5 1.59748H1.5C1.22386 1.59748 1 1.82078 1 2.09623V12.4037C1 12.6792 1.22386 12.9025 1.5 12.9025H6.5C6.77613 12.9025 7 12.6792 7 12.4037V2.09623C7 1.82078 6.77613 1.59748 6.5 1.59748ZM4.8326 10.9075C5.10873 10.9071 5.33293 11.1301 5.33333 11.4055C5.33373 11.6809 5.1102 11.9046 4.83407 11.905L3.1674 11.9075C2.89127 11.9079 2.66707 11.6849 2.66667 11.4095C2.66625 11.134 2.8898 10.9104 3.16593 10.91L4.8326 10.9075Z" fill="white"/>
</svg>
